<?xml version="1.0" encoding="iso-8859-1"?>
<!-- Generator: Adobe Illustrator 16.0.0, SVG Export Plug-In . SVG Version: 6.00 Build 0)  -->
<!DOCTYPE svg PUBLIC "-//W3C//DTD SVG 1.1//EN" "http://www.w3.org/Graphics/SVG/1.1/DTD/svg11.dtd">
<svg version="1.1" id="Capa_1" xmlns="http://www.w3.org/2000/svg" xmlns:xlink="http://www.w3.org/1999/xlink" x="0px" y="0px"
	 width="493.951px" height="493.951px" viewBox="0 0 493.951 493.951" style="enable-background:new 0 0 493.951 493.951;"
	 xml:space="preserve">
<g>
	<path d="M0,130.313c0-9.98,8.08-18.061,18.058-18.061h45.146c2.323,0,4.533,0.476,6.573,1.276
		c24.441-18.716,62.415-41.402,102.93-41.402c59.261,0,64.25,16.81,69.17,51.775c0.763,5.4,1.62,11.511,2.837,18.042
		c7.016,37.731-3.99,53.59-11.166,59.672c-7.802,6.635-18.232,8.275-28.599,4.522c-16.187-5.858-28.576-22.872-32.329-44.414
		c-0.73-4.11,2.042-8.074,6.18-8.795c4.141-0.721,8.074,2.045,8.801,6.18c3.378,19.364,14.248,29.737,22.523,32.734
		c3.662,1.318,8.993,2.081,13.589-1.818c7.826-6.649,10.096-23.587,6.059-45.309c-1.28-6.856-2.169-13.151-2.95-18.708
		c-4.285-30.487-5.441-38.688-54.11-38.688c-35.341,0-69.676,20.294-92.406,37.453c0.57,1.75,0.958,3.588,0.958,5.533v3.166v18.09
		v216.233c22.673,1.809,31.383,6.206,43.645,13.299c6.81,3.942,14.526,8.405,28.467,13.53
		c35.819,13.163,101.449,8.162,107.396,7.666c24.766-4.812,27.722-18.418,31.149-34.17c1.75-8.045,3.559-16.379,8.713-22.893
		l0.656-0.744c26.775-27.131,22.644-60.562,22.449-61.957c-0.255-1.951,0.123-3.83,0.975-5.432c0.095-0.438,0.178-0.869,0.349-1.295
		c0.136-0.366,13.56-36.603-11.095-57.423c-0.188-0.157-0.336-0.358-0.508-0.526c-2.099,0.006-3.257,0.006-3.257,0.006v-0.363
		h-3.896c-5.012,0-9.078-4.067-9.078-9.079c0-5.013,4.066-9.079,9.078-9.079h45.897c0.833,0,1.625,0.145,2.388,0.364l95.021-0.006
		c14.423,0.006,26.167-11.741,26.167-26.176c0-14.431-11.744-26.167-26.167-26.173H255.569c-0.992,0-1.829-0.085-2.78-0.109
		c-0.098-6.052-0.23-12.105-0.429-18.146c1.058,0.035,2.074,0.097,3.209,0.097h194.062c24.436,0,44.319,19.89,44.319,44.331
		c0,9.803-3.228,18.829-8.63,26.176c0,0-13.778,17.862-28.75,17.862c-8.642,0-79.37,0.151-119.244,0.243
		c15.161,23.599,8.701,51.696,5.811,61.17c-2.039,10.131-2.92,19.801-2.866,29.152c-2.902,14.505-9.824,32.497-25.63,48.698
		c-2.376,3.286-3.641,9.056-4.965,15.161c-3.57,16.443-8.973,41.281-45.974,48.232l-0.875,0.13
		c-3.015,0.271-74.529,6.466-115.712-8.677c-15.403-5.663-24.21-10.752-31.292-14.836c-9.552-5.521-15.865-9.15-34.554-10.806v3.145
		c0,9.96-8.098,18.052-18.061,18.052H18.063C8.095,407.221,0,399.135,0,389.169V130.313z"/>
</g>
<g>
</g>
<g>
</g>
<g>
</g>
<g>
</g>
<g>
</g>
<g>
</g>
<g>
</g>
<g>
</g>
<g>
</g>
<g>
</g>
<g>
</g>
<g>
</g>
<g>
</g>
<g>
</g>
<g>
</g>
</svg>
